<svg version="1.2" xmlns="http://www.w3.org/2000/svg" viewBox="0 0 1548 470"><defs><clipPath clipPathUnits="userSpaceOnUse" id="cp1"><path d="m1547.05 0v471.16h-1547.05v-471.16z"/></clipPath></defs><style>.a{fill:#1c3251}.b{fill:#f5d85d}.c{fill:#de654a}.d{fill:#147d46}</style><g clip-path="url(#cp1)"><path fill-rule="evenodd" class="a" d="m738 81.6h148v151.8c-0.5 10.5-7.9 18.5-16.7 23.4-14.4 7.8-29.4 8.9-45.3 8.9v-26.4c13.5 0 31-1.2 31-18.4v-15h-88.4c-1.3 24.8-13.3 49.1-34.5 62.8-1.3-1.9-15.2-22.7-15.2-22.8 15.4-11.7 21-36.1 21-54.4v-110zm28.7 74.2v23.9h88.4v-23.9zm157.7-9.5h74v-64.5h26.3v64.5h76.3v23.9h-50.1v59.8c0 4 3.2 7.2 7.1 7.2h13c3.7 0 7.3-0.9 9-4.9 2.8-4.4 1.9-20.6 1.9-26.1h23.9c0 15.2 1.1 28.8-7 42.7-4.4 7.5-13.1 12.3-21.6 12.3-9.3 0-26.9 1.2-34.8-0.4-10.1-1.9-17.7-11.7-17.7-23.5v-66.9h-26.1c0 23.5-6.6 46.2-21.9 64.5-13.4 16.1-31 25.6-52.2 26.2v-23.8c12.8-3.5 28.1-12.1 34.9-24.1 6.5-11.7 10.4-26.5 10.4-42.8h-45.3v-23.9zm167.8-54.7c-6.9 16.5-15.6 31.7-25.7 45.3l-21.6-8.3c8.4-14 15.3-29.4 20.7-45.9zm-131.1-8.3c8.1 13.6 15 28.6 20.2 44.5l-25.1 10c-4.4-16.3-10.5-31.6-17.9-45.8zm-389.1 177.7c-21.8 0-39.4-16.6-39.4-37.1v-137.5h148v174.7h-108.6zm80-74.2h-90.7v37.1c0 4.6 4.8 8.4 10.7 8.4h80zm-90.7-74.1v45.4h90.7v-45.4zm656.4 42.1c-26.5-40.3 5.2 5.5 5.3-74.5h74.8v50.2c10.8 0 8.9 3.2 8.9-18.4h20.5c0 12 1.4 30.2-10.5 37.7-8.1 5-31.3 4.9-37.4-4.1-2.2-3.1-3.4-7-3.4-11.3v-30.2h-29.9c-1.8 20.1-6.8 38-27.5 51.7l-0.7-1.1zm89.8 42.2c-5.2 12.5-11.9 21.9-21.6 31.6 11.5 5.2 22.6 8.4 36.2 11.5v23.6c-23.5-3-33.8-6.9-58.4-19.4-16.8 9.2-33.7 15.3-52.5 19.2l-13.1-19.9c16.8-3.6 32.5-7.6 46.2-13.7-14-14-22.1-27.7-27.3-46.9h-8.8v-22.2h107c-0.6 13.3-3.2 25.4-7.7 36.3zm-100.3 67.3l-1.9 0.4-0.2-0.4zm71-63.9c4.1-6.2 6-10.9 7.8-17.3h-44.9c5.1 14 11.6 23.2 23.1 33.3l14-16.1zm-75.1-23.1c-3.1 1.4-7.7 3.2-13.8 5.3l-2.3 0.7v52c-0.4 9.3-6.9 16.2-14.6 20.4-11 6-22.3 7.5-34.2 7.8v-23c10.6-0.5 21.7-3.1 21.7-16v-32.7l-0.8 0.2c-6.9 2-13.5 3.8-19.9 5.6l-5-24.5c5-0.6 13.2-2.4 24.7-5.3l1-0.2v-34.7h-21.7v-23.9h21.7v-27.7h27.1v27.7h15.2v23.9h-15.2v27.2l2-0.5c5.5-1.8 9.5-3.1 11.9-4zm332.7 6.2v23.9h-45.2v26.8h50.5v23.9h-125.7v-23.9h48.3v-26.8h-43.1v-23.9zm-119.6-6.2l-15.3 6v52c-0.5 9.3-6.6 16.2-13.9 20.4-10.5 6-21.2 7.5-32.5 7.8v-23c22.7-1.2 20.6-11.3 20.6-29.1v-19.5l-19.7 5.7-4.7-24.5 24.4-5.6v-34.6h-20.6v-23.9h20.6v-27.7h25.7v27.7h14.5v23.9h-14.5v27.1l13.2-4.4 2.1 21.6zm85.7-25.1c0 6 7.5 4.6 12.4 4.6 6.4 0 4.8-8.5 4.8-16.6h22.6c0 14.4-1.5 35.4-21.4 35.2-4.9 0-21.9 0.4-25.4-0.3-8.2-1.6-13.3-9.4-13.3-17.7v-42.5h-5.4c-0.9 27.7-14.4 56.1-42.7 63.1l-12.4-18.6c23.2-6.4 30.6-22 31.2-44.4h-10.1v18h-21.4v-40.2h43.6v-20.3h25.5v20.3h51.1v37.4h-21.3v-15.2h-17.8zm-735-44.3v23.9h88.3v-23.9z"/><path class="b" d="m118.5 285.1q-2.6-1.1-5.6-2.3zm-34.7-12.8q1.3 0.3 2.5 0.9z"/><path class="a" d="m468.7 242.2c-33.9 13-67.3 25.7-101.2 38.6 20.4 29.2 40.7 58 61.4 87.5 2.5 3.5-0.5 8.3-4.9 7.6-35.4-6.4-70.2-12.6-105.6-18.8 5.9 30.5 11.6 60.4 17.5 91.2 0.7 4.2-3.9 7.2-7.7 4.9-30.7-20.1-61.1-39.8-91.8-59.9-11.2 24.4-22.3 48.7-33.8 73.8-1.8 4.1-7.6 3.7-9-0.5-8.8-27.8-17.5-54.6-26.2-81.8-22.4 14-44.6 27.7-67.5 41.9-3.6 2.4-8.2-1-7.3-5.3 6.6-27.9 13-55.1 19.4-82.6-26.7 3.2-53.1 6.2-80.3 9.6-4.5 0.5-7.3-4.7-4.5-8 19.1-23 37.5-45.4 56.4-68.1l0.1-0.4 49.6 18.5c1.4 1.8 36.8 38.6 84.6 38.6q2.5 0 5.1 0 6.8-0.5 13.2-1.8v-24.7c19-5.5 37.1-19.5 53.8-41.9l19.2 14.4c-21.7 29.1-46.4 46.5-73 52.2v45.9q0.3 0 0.5 0 3-0.2 6.2-0.6 1.6-0.2 3.2-0.3 1.6-0.4 3.2-0.6 3.4-0.5 6.6-1.2 3.2-0.7 6.2-1.4 3.7-0.9 7.3-2.2 2.5-0.7 5-1.6 4.4-1.7 8.9-3.7 1.4-0.5 2.8-1.2 3.4-1.6 6.6-3.2 1-0.6 1.9-1.1 3.1-1.8 5.9-3.5 1.1-0.8 2.3-1.5c5.9-3.7 11.6-8 16.7-12.8q0.9-0.7 1.8-1.4 3.7-3.4 7.1-7.1 1.1-1.1 1.9-1.9 5.4-6.1 10.2-12.5c0.5-0.9 1-1.6 1.6-2.5q0.5-0.9 1.2-1.8 0.6-0.9 1.3-1.7 4.2-6.8 7.8-13.9 0.7-1.4 1.2-2.8 0.9-1.6 1.4-3.2 0.6-1.3 1.1-2.5 0.4-0.9 0.9-1.8 0.3-1.2 0.9-2.5c0.3-1.1 0.7-2.1 1.1-3q0.5-1.8 1.2-3.6 0.3-1.2 0.7-2.5 0.3-1.4 0.9-2.8 0.4-2 0.9-4.1 0.3-1 0.5-2.3 0.4-1.6 0.7-3.2 0.9-4.6 1.6-9.6 0.2-1.4 0.4-3 0.2-1.6 0.3-3.4 0-1.6 0.2-3.2 0-1.4 0.2-2.7c0 0 2.3-110.9-129.4-156.3q-0.3-0.2-0.8-0.2l0.8-0.6 11.8-6.9 12.2-7.1c24.7-14.6 49.4-29 74.8-43.7 3.4-2 7.7 0.9 7.3 4.8-3.2 30.2-6.4 59.9-9.8 90.3 32.4-3.6 64.5-7.3 97.2-11.1 4.3-0.3 7.1 4.5 4.6 7.9-19.5 26.6-38.7 52.6-57.9 78.9 30.6 12.6 60.6 25.2 91.5 38 4.1 1.8 4 7.5-0.2 9zm-189.3-71c0 9-7.3 16.3-16.4 16.3-9.2 0-16.5-7.3-16.5-16.3 0-9.1 7.3-16.6 16.5-16.6 9.1 0 16.4 7.5 16.4 16.6z"/><path class="c" d="m366.6 239.2c0 0 2.3-111.2-130.1-156.5l-43.5 156.5zm-87.1-68c0 9-7.2 16.3-16.5 16.3-9 0-16.3-7.3-16.3-16.3 0-9.1 7.3-16.6 16.3-16.6 9.3 0 16.5 7.5 16.5 16.6z"/><path class="b" d="m236.2 239.2v63.3q-7.1 1.9-14.4 2.3-2 0.2-3.9 0.2c-37.3 0-66.8-30.6-67.2-30.9l-17.4 16.5c1.4 1.6 36.8 38.4 84.6 38.4q2.5 0 5.1 0 6.8-0.5 13.2-1.8v-24.7c19-5.5 37.1-19.5 53.8-41.9l19.2 14.4c-21.7 29.1-46.4 46.5-73 52.2v45.9c71.1-4.7 127.5-62.4 130.4-133.9zm-40.5-68c0 9-7.5 16.3-16.5 16.3-9.1 0-16.6-7.3-16.6-16.3 0-9.1 7.5-16.6 16.6-16.6 9 0 16.5 7.5 16.5 16.6z"/><path class="d" d="m216.3 305q0.7 0 1.6 0 1.9 0 3.9-0.2 7.3-0.4 14.4-2.3v-63.3h-43.2l43.5-156.7 24.7-14.4c-14-22-27.9-43.7-41.9-65.8-2-3-6.4-3-8.2 0.2-14 23.7-27.9 46.9-41.7 70.2-23.5-8.7-46.7-17.4-70.6-26.3-3.5-1.4-7.3 1.8-6.3 5.7 5.5 24.7 10.9 48.9 16.5 73.4-26.9 0.5-53 1.1-79.6 1.6-4.1 0-6.3 4.6-3.8 7.8 16.5 21.2 32.6 42 48.9 62.9-24.2 11.8-47.6 23.3-71.6 35-3.9 2-3.6 7.5 0.4 8.9 27 10.3 130 48.9 130 48.9l17.4-16.5c0.4 0.3 29 30 65.6 30.9zm-20.6-133.8c0 9-7.3 16.3-16.4 16.3-9.2 0-16.5-7.3-16.5-16.3 0-9.1 7.3-16.6 16.5-16.6 9.1 0 16.4 7.5 16.4 16.6z"/><path fill-rule="evenodd" class="a" d="m615.5 411.9h-21.1l-9.3-23.8h-41.2l-9.3 23.8h-21.1l37.8-92.5c2.3-5.4 6.8-8.1 13.6-8.1 6.2 0 10.5 2.8 12.9 8.6l37.6 92.1zm-36.5-40l-13.6-36.6c-0.3-0.8-0.5-1.2-0.8-1.2q-0.4 0-0.9 1.2l-13.6 36.6h29z"/><path class="a" d="m659.8 412.6c-11.8 0-23.7-1.1-36-3.4v-16.9c13.5 2.3 25.6 3.4 36.1 3.4 14.8 0 22.3-4 22.3-12.2 0-2.4-1.7-4.6-4.9-6.5-3.3-1.8-10.2-4.3-20.9-7.2q-15.9-4.5-24.6-11.2c-5.9-4.5-8.8-10.8-8.8-18.8 0-8.1 3.5-15.4 10.4-20.7 6.9-5.2 16.8-7.8 30-7.8 9.4 0 20.2 1.1 32.5 3.5v16.8c-13.5-2.2-24.4-3.3-32.6-3.3-8.2 0-13.2 1-16.2 3.1-3 2-4.5 4.9-4.5 8.3 0 2.5 1.5 4.9 4.6 6.9 3 2.1 10 4.6 20.8 7.6 10.8 3 19.1 6.7 24.9 10.9 5.9 4.3 8.8 10.4 8.8 18.4q0 12.8-10.8 21c-7.1 5.5-17.5 8.2-31.1 8.2"/><path class="a" d="m785.3 411.9h-46.2q-10.5 0-16.9-5.4c-4.2-3.7-6.4-9-6.4-16.1v-78.5h69.5v17.1h-49.9v24.3h47.7v17.1h-47.7v20c0 3 2.1 4.5 6.4 4.5h43.4v17z"/><path class="a" d="m912.1 411.9h-19.5v-41.8h-45.5v41.8h-19.6v-100h19.6v41.9h45.5v-41.9h19.5z"/><path class="a" d="m974.7 412.7c-15.7 0-27.8-4.5-36.2-13.6-8.5-8.9-12.8-21.5-12.8-37.5 0-16 4.3-28.3 12.8-37.1 8.4-8.8 20.5-13.2 36.2-13.2 15.7 0 27.7 4.4 36.2 13.2 8.4 8.7 12.7 21.1 12.7 37.1 0 16-4.3 28.5-12.7 37.5-8.5 9-20.5 13.6-36.2 13.6zm-0.1-16.4q14.1 0 21.7-8.9c5.1-5.9 7.6-14.5 7.6-25.9 0-11.5-2.5-19.8-7.6-25.5-5-5.8-12.2-8.6-21.7-8.6-9.5 0-16.7 2.8-21.8 8.6-5.1 5.7-7.6 14.1-7.6 25.5 0 11.3 2.5 20 7.6 25.9 5.1 6 12.3 8.9 21.8 8.9z"/><path class="a" d="m1106.6 411.9h-46.2q-10.5 0-16.9-5.4c-4.3-3.7-6.4-9-6.4-16.1v-78.5h19.6v78.5c0 3 2.1 4.5 6.5 4.5h43.4z"/><path class="a" d="m1163.2 411.9h-42.4v-100h42.4c14.2 0 25.8 4.3 35 12.8 9.2 8.5 13.9 20.8 13.9 36.9 0 16.1-4.7 28.5-13.9 37.2-9.2 8.7-20.9 13.1-35 13.1zm0-16.9c9.4 0 16.6-2.9 21.7-8.6 5.1-5.7 7.6-13.9 7.6-24.9 0-10.9-2.5-18.9-7.6-24.3-5-5.4-12.3-8.2-21.8-8.2h-22.8v66h22.8z"/><path fill-rule="evenodd" class="a" d="m1245.4 312v100h-19.5v-100z"/><path class="a" d="m1347.6 411.9h-18.5l-46.6-65v65h-19.6v-100h18.5l46.5 65v-65h19.6v100z"/><path class="a" d="m1413 412.7q-22.7 0-37.2-13.5c-9.7-9-14.6-21.4-14.6-37.5q0-24.2 13.5-37.2c8.9-8.7 22.4-13.1 40.5-13.1 10.4 0 22 1.4 34.6 4.2v17.7c-14-3.3-25.6-5-34.7-5-11.8 0-20.6 2.8-26.1 8.3-5.4 5.4-8.3 13.8-8.3 25 0 11.2 3.2 19.8 9.3 25.6 6.2 5.7 13.9 8.6 22.9 8.6 7.4 0 13-1.6 16.8-4.7 3.8-3.1 5.7-7.3 5.7-12.5v-5.3h-19.7v-17.1h39.4v21.8c0 10.6-3.5 19-10.7 25.3-7.1 6.4-17.5 9.5-31.3 9.5"/><path class="a" d="m1505.2 412.6c-11.8 0-23.7-1.1-36-3.4v-16.9c13.5 2.3 25.6 3.4 36.1 3.4 14.8 0 22.3-4 22.3-12.2 0-2.4-1.7-4.6-5-6.5-3.2-1.8-10.2-4.3-20.8-7.2q-15.9-4.5-24.7-11.2c-5.8-4.5-8.7-10.8-8.7-18.8 0-8.1 3.5-15.4 10.3-20.7 7-5.2 16.9-7.8 30.1-7.8 9.3 0 20.1 1.1 32.5 3.5v16.8c-13.5-2.2-24.4-3.3-32.6-3.3-8.2 0-13.2 1-16.2 3.1-3 2-4.6 4.9-4.6 8.3 0 2.5 1.6 4.9 4.7 6.9 3 2.1 10 4.6 20.8 7.6 10.8 3 19 6.7 24.9 10.9 5.9 4.3 8.8 10.4 8.8 18.4 0 8.5-3.5 15.5-10.7 21q-10.7 8.3-31.2 8.1z"/></g></svg>
