<?xml version="1.0" encoding="UTF-8"?>
<svg version="1.1" viewBox="0 0 198.72 27.505" xml:space="preserve" xmlns="http://www.w3.org/2000/svg"><g transform="translate(-5.2396 -141.35)"><path d="m23.46 162.11h-6.6477c-0.40543 0-0.81085-0.2542-1.0554-0.67571l-3.0793-5.7371c-0.16088-0.42151-0.16088-0.84303 0-1.1809l3.0793-5.7371c0.24454-0.42152 0.64997-0.67571 1.0554-0.67571h3.8097c0.40543 0 0.81085-0.2542 1.0554-0.67571l2.7575-5.1483c0.24454-0.42152-0.08044-0.92669-0.48587-0.92669h-10.216c-0.8913 0-1.6217 0.50517-2.1076 1.2645l-6.0814 11.307c-0.40541 0.76474-0.40541 1.6807 0 2.4454l6.0814 11.223c0.4176 0.77599 1.2264 1.2612 2.1076 1.2645h13.054c0.48587 0 0.73041-0.50517 0.48587-0.92669l-2.838-5.2319c-0.08044-0.42151-0.48587-0.59205-0.97174-0.59205z" fill="#2741e7" fill-rule="evenodd" stroke-width="0"/><g fill="currentColor"><path d="m41.459 146.33-2.5934-4.5562c-0.24454-0.42151-0.81085-0.42151-1.0554 0l-10.947 20.249c-0.16088 0.42152-0.16088 0.84303 0 1.1809l2.838 5.3156c0.24454 0.42151 0.81085 0.42151 1.0554 0l10.702-19.744c0.40541-0.76474 0.40541-1.6807 0-2.4454z" stroke-width=".32177"/><path d="m28.244 155.61 3.2434-5.9913c0.16088-0.33786 0.16088-0.84303 0-1.2646l-3.7293-6.667c-0.24454-0.42151-0.81085-0.42151-1.0554 0l-3.163 5.8208c-0.16088 0.33785-0.16088 0.84303 0 1.1809l3.6488 6.8343c0.24454 0.50518 0.8913 0.50518 1.0554 0.0837z" fill-rule="evenodd" stroke-width="0"/><path d="m51.025 146.33-2.5934-4.5562c-0.24454-0.42151-0.81085-0.42151-1.0554 0l-10.947 20.249c-0.16088 0.42152-0.16088 0.84303 0 1.1809l2.9184 5.3156c0.24454 0.42151 0.81085 0.42151 1.0554 0l10.702-19.744c0.40543-0.75937 0.40543-1.6861-0.08044-2.4454zm91.478-1.1455h1.5413c0.40542 0 0.64997 0.33786 0.56631 0.75937l-4.2152 19.827c-0.0804 0.42151-0.40543 0.67571-0.81085 0.67571h-2.0271c-0.40542 0-0.73041-0.2542-0.81085-0.67571l-3.6488-14.595c-0.0804-0.42151-0.73041-0.42151-0.81085 0l-3.7293 14.595c-0.0804 0.42151-0.40543 0.67571-0.81085 0.67571h-2.0271c-0.40542 0-0.73041-0.2542-0.81085-0.67571l-4.2152-19.827c-0.0804-0.33785 0.16089-0.75937 0.56631-0.75937h1.7022c0.40543 0 0.73041 0.33786 0.81085 0.75937l2.7576 14.261c0.0804 0.50517 0.73041 0.50517 0.81085 0l3.7293-14.344c0.0804-0.42151 0.40543-0.67571 0.81085-0.67571h1.5413c0.40542 0 0.73041 0.2542 0.81085 0.67571l3.7293 14.344c0.0804 0.42151 0.73041 0.42151 0.81085 0l2.7576-14.261c0.24454-0.50517 0.56631-0.75937 0.97173-0.75937z" stroke-width=".32177"/></g></g></svg>
