<?xml version="1.0" encoding="utf-8"?>
<svg version="1.1" id="Layer_1" xmlns="http://www.w3.org/2000/svg" xmlns:xlink="http://www.w3.org/1999/xlink" x="0px" y="0px" viewBox="0 0 282.358 90.301" enable-background="new 0 0 282.358 90.301"
	 xml:space="preserve">
<g>
	<g>
		<polygon fill="#003C83" points="28.682,16.318 9.164,16.318 9.164,0 0,0 0,41.797 9.164,41.797 9.164,24.488 28.682,24.488
			28.682,41.797 37.842,41.797 37.842,0 28.682,0 		"/>
		<path fill="#003C83" d="M227.679,2.384c-1.923,1.967-2,4.837-2.05,6.51v32.903h9.149V28.461h19.438v13.336h9.189V0h-28.561
			C232.129,0.025,229.59,0.419,227.679,2.384z M237.114,8.167h17.103V20.3h-19.438v-9.746c0.038-0.48-0.054-1.35,0.351-1.865
			C235.563,8.146,236.253,8.19,237.114,8.167z"/>
		<path fill="#003C83" d="M162.864,0H134.25v41.797h9.164V8.167h17.182c0.854,0.023,1.554-0.021,1.978,0.521
			c0.41,0.515,0.329,1.385,0.358,1.865v31.243h9.155V8.894c-0.051-1.673-0.123-4.543-2.037-6.51
			C168.129,0.419,165.593,0.025,162.864,0z"/>
		<path fill="#003C83" d="M116.98,31.239c-0.033,0.49,0.05,1.341-0.354,1.86c-0.434,0.548-1.131,0.5-1.981,0.523H97.467V0h-9.168
			v41.797h28.62c2.722-0.021,5.26-0.426,7.175-2.391c1.923-1.964,1.996-4.83,2.048-6.509V0h-9.16V31.239z"/>
		<path fill="#003C83" d="M218.03,8.894c-0.045-1.673-0.121-4.543-2.035-6.51C214.08,0.419,211.538,0.025,208.82,0h-19.453h-9.155
			v41.797h28.608c2.718-0.021,5.26-0.426,7.175-2.391c1.914-1.964,1.99-4.83,2.035-6.509V8.894z M208.903,31.239
			c-0.033,0.49,0.051,1.341-0.35,1.86c-0.43,0.548-1.135,0.5-1.986,0.523h-17.2V8.167h17.2c0.852,0.023,1.557-0.021,1.986,0.521
			c0.4,0.515,0.316,1.385,0.35,1.865V31.239z"/>
		<polygon fill="#003C83" points="63.079,18.287 51.964,0 41.079,0 58.184,26.351 58.184,41.797 67.968,41.797 67.968,26.351
			85.07,0 74.181,0 		"/>
		<rect x="272.587" fill="#003C83" width="9.771" height="41.797"/>
	</g>
	<rect y="52.732" fill="#003C83" width="282.358" height="6.296"/>
</g>
</svg>
