<?xml version="1.0" encoding="UTF-8" standalone="no"?>
<svg
   width="135.47139mm"
   height="47.196819mm"
   viewBox="0 0 135.47139 47.196819"
   version="1.1"
   xmlns="http://www.w3.org/2000/svg">
  <defs id="defs938" />
  <g
     id="layer1"
     transform="translate(18.982869,-131.06574)">
    <g
       fill-rule="nonzero"
       fill="none"
       id="g18"
       transform="matrix(0.87401216,0,0,0.87401216,-18.982854,131.06568)">
      <path
         d="m 17.593,24.12 c 5.729,0 9.658,4.432 9.653,9.89 v 9.333 h -5.177 v -9.33 c 0,-2.867 -1.624,-5.184 -4.482,-5.187 -2.857,-0.003 -4.486,2.312 -4.49,5.18 v 9.331 H 7.925 v -9.329 c 0.005,-5.461 3.943,-9.887 9.669,-9.887 z m 32.39,-5.656 v 24.881 h -4.83 v -2.211 a 6.69,6.69 0 0 1 -5.413,2.764 c -5.658,0 -10.248,-4.423 -10.248,-9.882 0,-5.458 4.587,-9.895 10.21,-9.895 a 7.84,7.84 0 0 1 5.107,1.897 V 18.464 Z M 39.84,39.2 a 5.181,5.181 0 0 0 5.172,-5.19 5.18,5.18 0 0 0 -5.18,-5.18 5.18,5.18 0 0 0 -5.174,5.187 5.178,5.178 0 0 0 1.516,3.67 5.162,5.162 0 0 0 3.666,1.513 z M 89.8,37.54 c 0,4.008 -3.59,6.358 -7.592,6.358 -4.002,0 -7.577,-2.35 -7.577,-6.358 h 5.177 c 0,1.59 1.277,2.005 2.414,2.005 1.136,0 2.416,-0.588 2.416,-1.797 0,-0.864 -1.139,-1.658 -2.692,-1.867 -3.621,-0.45 -7.107,-2.662 -7.107,-5.597 0,-3.794 3.38,-6.152 7.383,-6.152 4.002,0 7.371,2.35 7.371,6.358 h -5.176 c 0,-1.588 -1.07,-2.003 -2.209,-2.003 -1.139,0 -2.208,0.415 -2.208,1.659 0,1.106 2.279,1.968 4.279,2.212 2.725,0.309 5.52,2.038 5.52,5.182 z m 22.15,-3.524 v 9.33 h -4.829 V 41.03 a 6.56,6.56 0 0 1 -5.412,2.867 c -5.659,0 -10.248,-4.423 -10.248,-9.882 0,-5.458 4.584,-9.895 10.243,-9.895 5.658,0 10.245,4.434 10.245,9.895 z m -4.967,0 a 5.185,5.185 0 0 0 -3.194,-4.792 5.171,5.171 0 0 0 -5.642,1.122 5.19,5.19 0 0 0 -1.124,5.651 5.177,5.177 0 0 0 9.96,-1.98 z m 12.584,-15.552 v 5.833 h 5.174 v 4.431 h -5.174 v 5.296 a 5.178,5.178 0 0 0 1.513,3.667 5.162,5.162 0 0 0 3.661,1.516 v 4.7 h -0.69 c -5.726,0 -9.66,-4.424 -9.66,-9.883 V 18.464 Z M 62.68,43.906 c -5.682,0 -10.283,-4.423 -10.283,-9.882 0,-5.458 4.59,-9.903 10.284,-9.903 5.693,0 10.283,4.423 10.283,9.884 0,5.462 -4.59,9.901 -10.283,9.901 z m 0,-15.067 a 5.177,5.177 0 0 0 -4.832,3.152 5.19,5.19 0 0 0 1.077,5.674 5.171,5.171 0 0 0 5.65,1.156 5.185,5.185 0 0 0 3.212,-4.797 5.154,5.154 0 0 0 -1.478,-3.657 5.138,5.138 0 0 0 -3.628,-1.536 v 0.008 z M 5.954,19.847 A 2.98,2.98 0 0 1 2.977,22.827 2.98,2.98 0 0 1 0,19.848 2.974,2.974 0 0 1 5.082,17.74 c 0.558,0.558 0.872,1.317 0.872,2.108 z m -5.556,4.838 h 5.177 v 18.66 H 0.398 Z"
         fill="#4d4d4f" />
      <path d="m 149.354,5.609 a 12.206,12.206 0 0 1 3.564,8.288 8.379,8.379 0 0 0 -0.343,-11.422 8.347,8.347 0 0 0 -11.402,-0.433 c 3.08,0.11 6.003,1.384 8.181,3.567 z" fill="#ffcb05"/>
      <path d="m 132.05,22.936 a 12.206,12.206 0 0 1 -3.558,-8.19 8.376,8.376 0 0 0 0.413,11.436 8.345,8.345 0 0 0 11.421,0.327 12.169,12.169 0 0 1 -8.275,-3.573 z" fill="#32bcad"/>
      <path d="m 128.895,14.298 c -0.146,0.147 -0.27,0.304 -0.414,0.461 0.25,6.425 5.42,11.56 11.837,11.758 0.138,-0.122 0.27,-0.239 0.409,-0.372 a 8.387,8.387 0 0 0 2.164,-8.092 8.372,8.372 0 0 0 -5.916,-5.924 8.356,8.356 0 0 0 -8.08,2.17 z" fill="#c6168d"/>
      <path d="m 140.74,14.298 a 8.358,8.358 0 0 0 11.832,0 c 0.127,-0.13 0.251,-0.27 0.37,-0.398 C 152.749,7.46 147.607,2.272 141.179,2.031 a 8.161,8.161 0 0 0 -0.452,0.418 8.39,8.39 0 0 0 0.013,11.85 z" fill="#ec008c"/>
      <path d="m 140.74,2.438 c 0.144,-0.144 0.29,-0.271 0.439,-0.407 a 12.168,12.168 0 0 0 -9.121,3.566 12.207,12.207 0 0 0 -3.552,9.138 c 0.13,-0.152 0.27,-0.304 0.403,-0.447 a 8.356,8.356 0 0 1 11.831,0 8.39,8.39 0 0 1 0,-11.85 z m 12.178,11.47 c -0.116,0.133 -0.235,0.271 -0.36,0.39 a 8.358,8.358 0 0 1 -11.831,0 8.387,8.387 0 0 1 0,11.847 c -0.127,0.13 -0.27,0.244 -0.4,0.364 3.37,0.112 6.636,-1.18 9.022,-3.567 a 12.223,12.223 0 0 0 3.57,-9.034 z" fill="#ed1c24"/>
    </g>
  </g>
</svg>
