<svg version="1.2" xmlns="http://www.w3.org/2000/svg" viewBox="0 0 1575 238">
	<style>
		.s0 { fill: #052b42 }
	</style>
	<path fill-rule="evenodd" class="s0" d="m1476.6 99.2c37.4 3.9 57.1 5.9 80 24.3 23.6 20.6 27.3 66.2-8.6 89.7-32.5 20.9-73.2 23.5-110.8 24.4-55.1 0-134.1-10.7-134-80.2h50.7c1.6 16.3 11.2 26.1 27.9 30.9 19.8 5.5 38.9 6.2 57.6 6.4 42.8 0 84.5-7.1 81.9-31.3-2.5-22-31.7-24.2-45.5-25.3h-0.1q-0.6 0-1.2-0.1c-8.9-0.7-50.2-3.2-50.2-3.2-25.9-1.9-44.7-4.7-56.3-6.8-25-4.7-37.2-14.3-45.3-21.3-20.6-19.4-23.8-62.8 9.1-84.5 29.4-19.2 66.5-21.2 100.4-22.1 51.3 0.7 131.2 10 135.8 74.6h-51.2c-4.6-32.8-77-33.8-114.1-30.1 0 0-44.6 1.8-44.6 23.9 0 0-3.2 20.1 41 24.2 4.9 0.4 69.5 5.8 74 6.2zm-1144.5-95.7h239.4v43.6h-192.5v49.8h171.6v43.6h-171.6v50.1h192.5v43.6h-239.4zm618.4 0v230.7h-46.9v-230.7zm-89.3 165.4c0 38.9-22.6 65.4-91.8 65.4v-0.1h-150v-230.7h135.9v0.2c40.1 0.2 91.5 9.1 91.5 62.7 0 23.6-10.5 39.5-23 47.8 12.5 3.7 37.4 21.4 37.4 54.7zm-194.9-71.1h103.8c12.7-0.1 31.6-4.2 31.6-23.7 0-19.4-16.5-27-38.1-27h-97.3zm146.4 67.2c0-22-23.1-26.2-43.3-26.2v-0.1h-103.1v51.8h103.8c21.6 0 42.6-3.5 42.6-25.5zm239.8-49.8c0 14.2 1.1 41.6 5.5 64.4 0 0 26.8 9.8 76.2 9.8 49.1 0 76.1-9.7 76.4-9.8 4.3-22.8 5.5-50.2 5.5-64.4v-111.7h49.6v117.4c0 32.6-26.1 49.7-55.1 58.7-1.3 6.7-2.8 13-4.7 18.4-8.4 23.9-30.4 39.1-71.6 39.1-41.2 0-63.4-15.2-71.7-39.1-1.9-5.4-3.4-11.7-4.7-18.4-28.9-9-55-26.1-55-58.6v-117.5h49.6zm-772.7 28.6c0 53.5-46.6 56.3-46.6 56.3v-196.6h46.6zm-233-106.3c0-19.3 15.2-37.3 37.4-37.3 22.2 0 37.9 12.3 47.5 34.2l58.6 135.4c14.9 34.3 42.9 30.4 42.9 30.4 0 19.3-15.2 37.3-37.4 37.3-22.2 0-37.9-12.3-47.5-34.2l-58.7-135.4c-14.8-34.3-42.8-30.4-42.8-30.4v196.6h-46.6v-140.2c0-53.5 46.5-56.4 46.6-56.4z"/>
</svg>
