<?xml version="1.0" encoding="UTF-8" standalone="no"?>
<svg
   xmlns="http://www.w3.org/2000/svg"
   xmlns:xlink="http://www.w3.org/1999/xlink"
   version="1.0"
   viewBox="0 0 300 150">
<defs>
  <clipPath id="clipPath69"><path d="M 409.441,126.252 L 409.441,82.622 L 557.237,82.622 L 557.237,126.252"/></clipPath>
  <clipPath id="clipPath101"><path d="M 409.441,126.252 L 409.441,82.622 L 557.237,82.622 L 557.237,126.252"/></clipPath>
</defs>
<g transform="matrix(1.25,0,0,-1.25,-511.80125,157.815)">
  <g transform="translate(1.4705494,-0.9803663)">
    <path d="M 426.252,119.898 C 422.873,121.398 420.858,121.98 418.857,121.98 C 416.757,121.98 415.412,121.228 415.412,120.066 C 415.412,116.559 427.309,117.546 427.309,109.434 C 427.309,104.961 423.556,102.362 418.342,102.362 C 414.252,102.362 412.238,103.42 409.918,104.618 L 409.918,109.636 C 413.264,107.419 415.312,106.636 417.893,106.636 C 420.131,106.636 421.338,107.419 421.338,108.784 C 421.338,112.603 409.441,111.204 409.441,119.557 C 409.441,123.585 412.922,126.252 418.342,126.252 C 420.958,126.252 423.318,125.703 426.252,124.441 L 426.252,119.898" style="fill:#009e4d;fill-opacity:1;fill-rule:nonzero;stroke:none"/>
    <path d="M 442.909,103.428 C 440.926,102.709 439.249,102.366 437.576,102.366 C 432.035,102.366 428.453,105.593 428.453,110.503 C 428.453,115.323 432.174,118.728 437.37,118.728 C 438.975,118.728 441.027,118.317 442.668,117.706 L 442.668,114.016 C 441.369,114.706 439.865,115.084 438.634,115.084 C 435.66,115.084 433.747,113.297 433.747,110.539 C 433.747,107.742 435.628,105.901 438.462,105.901 C 439.658,105.901 440.721,106.175 442.909,106.994 L 442.909,103.428" style="fill:#009e4d;fill-opacity:1;fill-rule:nonzero;stroke:none"/>
    <path d="M 486.109,112.311 C 486.312,114.501 487.584,115.767 489.532,115.767 C 491.447,115.767 492.745,114.465 492.95,112.311 L 486.109,112.311 z M 489.19,118.723 C 484.328,118.723 480.867,115.289 480.867,110.457 C 480.867,105.589 484.466,102.366 490.013,102.366 C 491.242,102.366 494.214,102.366 497.045,104.461 L 497.045,107.542 C 494.726,105.89 493.192,105.321 491.212,105.321 C 488.087,105.321 486.176,106.938 486.003,109.698 L 497.324,109.698 C 497.559,115.459 493.777,118.723 489.19,118.723" style="fill:#009e4d;fill-opacity:1;fill-rule:nonzero;stroke:none"/>
    <path d="M 499.239,102.653 L 504.1892,102.653 L 504.1892,118.432 L 499.239,118.432 L 499.239,102.653 z" style="fill:#009e4d;fill-opacity:1;fill-rule:nonzero;stroke:none"/>
    <path d="M 517.964,106.966 C 516.933,106.038 516.076,105.666 515.019,105.666 C 512.688,105.666 511.213,107.584 511.213,110.459 C 511.213,113.609 512.688,115.425 515.183,115.425 C 516.076,115.425 517.242,115.014 517.964,114.499 L 517.964,106.966 z M 517.964,125.961 L 517.964,117.74 C 516.627,118.387 515.294,118.728 513.853,118.728 C 509.338,118.728 506.214,115.391 506.214,110.562 C 506.214,105.837 509.338,102.362 513.574,102.362 C 515.254,102.362 516.552,102.802 517.964,103.928 L 517.964,102.658 L 522.913,102.658 L 522.913,125.961 L 517.964,125.961" style="fill:#009e4d;fill-opacity:1;fill-rule:nonzero;stroke:none"/>
    <path d="M 530.24,112.311 C 530.446,114.501 531.711,115.767 533.656,115.767 C 535.574,115.767 536.885,114.465 537.09,112.311 L 530.24,112.311 z M 533.318,118.723 C 528.457,118.723 525.002,115.289 525.002,110.457 C 525.002,105.589 528.601,102.366 534.142,102.366 C 535.369,102.366 538.347,102.366 541.185,104.461 L 541.185,107.542 C 538.863,105.89 537.326,105.321 535.337,105.321 C 532.229,105.321 530.31,106.938 530.137,109.698 L 541.453,109.698 C 541.688,115.459 537.903,118.723 533.318,118.723" style="fill:#009e4d;fill-opacity:1;fill-rule:nonzero;stroke:none"/>
    <path d="M 460.738,112.696 C 460.738,116.972 457.832,118.723 454.964,118.723 C 453.014,118.723 451.411,117.9 449.977,116.085 L 449.909,116.085 L 449.909,125.961 L 444.954,125.961 L 444.954,102.699 L 449.909,102.699 L 449.909,112.696 C 451.068,114.373 452.058,115.09 453.219,115.09 C 454.76,115.09 455.784,113.994 455.784,111.637 L 455.784,106.094 C 457.446,106.948 459.135,107.472 460.738,107.667 L 460.738,112.696" style="fill:#009e4d;fill-opacity:1;fill-rule:nonzero;stroke:none"/>
    <path d="M 473.166,118.728 C 471.148,118.728 469.607,117.978 468.03,116.174 L 468.03,118.432 L 463.077,118.432 L 463.077,107.709 C 464.793,107.538 466.982,106.751 468.03,105.451 L 468.03,112.82 C 469.332,114.774 470.256,115.425 471.488,115.425 C 472.891,115.425 473.957,114.499 473.957,112.274 L 473.957,102.694 L 478.911,102.694 L 478.911,112.684 C 478.911,117.331 475.629,118.728 473.166,118.728" style="fill:#009e4d;fill-opacity:1;fill-rule:nonzero;stroke:none"/>
  </g>
</g>
</svg>
